<?xml version="1.0" encoding="UTF-8"?><svg xmlns="http://www.w3.org/2000/svg" viewBox="0 0 2000 500"><defs><style>.d{fill:#fff;}</style></defs><g id="a"/><g id="b"/><g id="c"><g><g><polygon class="d" points="831.54 150.38 842.09 95.7 763.82 95.7 767.58 38.2 745.93 95.7 694.06 95.7 683.51 150.38 725.35 150.38 679.61 271.87 715.58 271.87 689.15 358.95 720.14 358.95 713.14 415.3 808.73 194.35 776.27 194.35 786.62 150.38 831.54 150.38"/><g><path class="d" d="M161.93,245.7h-56.2l-12.75,62.57h64.57l-10.36,52.21H24.42L75.84,91.85h118.37l-10.36,51.81h-58.19l-11.16,52.61h56.99l-9.57,49.42Z"/><path class="d" d="M237.25,91.85h58.99l-41.85,217.62h62.18l-9.96,51.02h-120.77L237.25,91.85Z"/><path class="d" d="M468.02,245.7h-56.2l-12.75,62.57h64.57l-10.36,52.21h-122.76l51.42-268.63h118.37l-10.36,51.81h-58.19l-11.16,52.61h56.99l-9.57,49.42Z"/><path class="d" d="M620.67,358.09c-8.77,3.19-20.73,4.78-37.47,4.78-73.34,0-81.71-65.36-81.71-90.87,0-70.55,22.32-118.77,51.42-148.27,23.52-23.91,53.81-34.28,83.3-34.28,13.95,0,29.1,3.59,32.28,5.98l-16.34,51.42c-5.18-2.39-11.96-3.99-23.91-3.99s-26.3,8.37-36.27,21.52c-15.54,20.73-27.5,53.01-27.5,95.26,0,30.29,8.77,50.22,32.28,50.22,9.17,0,20.33-1.59,27.1-3.99l-3.19,52.21Z"/><path class="d" d="M859.4,95.84c18.33-3.19,39.06-5.18,58.19-5.18,23.91,0,48.63,3.99,64.17,19.13,11.56,11.16,18.73,27.1,18.73,45.44,0,39.86-24.31,70.55-53.81,80.51v1.2c13.55,6.78,19.53,20.73,20.33,48.62,.8,26.7,1.59,64.57,4.38,74.93h-58.99c-1.2-7.17-1.99-35.07-1.59-63.37,.4-30.29-5.58-39.86-19.13-39.86h-6.38l-19.13,103.23h-57.39l50.62-264.65Zm35.47,116.38h9.96c22.32,0,35.47-25.91,35.47-49.82,0-11.16-4.38-26.31-19.93-26.31-4.78,0-9.17,.4-11.96,1.2l-13.55,74.93Z"/><path class="d" d="M1197.38,173.56c0,59.78-18.33,127.54-54.21,163.41-17.54,17.54-37.86,26.7-63.37,26.7-61.38,0-70.55-59.39-70.55-88.88,0-56.2,18.33-123.95,55.8-160.22,16.34-15.94,36.67-25.91,62.57-25.91,61.38,0,69.75,53.81,69.75,84.9Zm-92.07-26.31c-22.72,22.72-35.47,95.26-35.47,135.11,0,11.56,1.99,29.89,18.73,29.89,4.38,0,9.17-2.39,13.15-6.38,24.31-24.31,35.07-110,35.07-138.7,0-10.36-2.39-27.1-16.74-27.1-5.18,0-9.96,2.39-14.75,7.17Z"/><path class="d" d="M1250.15,95.15c14.84-2.84,33.5-4.49,48.68-4.49,17.3,0,42.16,4.22,56.72,20.31,10.93,12.07,15.59,29.87,15.59,45.03,0,33.78-15.29,60.99-31.34,76.37-17.58,17.03-43.54,25.24-65.74,25.24-5.42,0-10.55-.34-15-1.03l-19.82,103.91h-39.36l50.27-265.34Zm15.39,127.79c3.94,.69,7.53,1.03,12.1,1.03,38.57,0,52.72-38.17,52.72-64.68,0-20.87-8.95-35.24-32.73-35.24-4.9,0-9.92,.34-13.51,1.31l-18.58,97.58Z"/><path class="d" d="M1418.74,95.15c15.41-2.84,32.36-4.49,48.4-4.49,22.2,0,42.27,5.19,54.72,17.76,10.53,10.82,16.33,25.73,16.33,43.03,0,38.48-23.8,71.23-55.18,81.54v1.02c15.27,6.6,22.45,23.47,23.07,55.84,.63,32.89,1.94,61.48,4.21,70.64h-40.44c-1.71-7.69-2.17-34.04-2.45-65.26-.46-34.76-8.16-47.24-28.41-47.24h-10.15l-21.02,112.5h-39.36l50.27-265.34Zm16.58,121.36h12.54c28.33,0,48.7-28.14,48.7-60.98,0-17-7.48-32.83-29.37-32.83-5.47,0-10.89,.4-14.71,1.54l-17.16,92.28Z"/><path class="d" d="M1666.81,237.45h-62.38l-16.88,87.13h71.44l-7.1,35.9h-111.25l51.07-268.63h106.7l-7.1,35.67h-65.58l-15.11,75.62h62.83l-6.65,34.31Z"/><path class="d" d="M1691.45,317.18c8.48,5.35,22.09,9.68,36.44,9.68,26.98,.45,43.38-18.04,43.38-42.39,0-19.26-9.91-31.92-27.16-48.9-20.32-19.81-32.52-41.16-32.52-65.6,0-46.37,33-80.52,82.39-80.52,18.77,0,31.92,4.38,38.13,8.54l-11.42,34.65c-7.97-4.16-16.74-7.17-29.21-7.17-23.54,0-39.15,16.48-39.32,39.28,0,15.8,7.6,28.07,27.45,46.11,20.42,18.61,32.46,42.13,32.46,65.83,0,52.41-33.73,86.18-84.46,86.18-23.88,0-40.85-5.98-46.88-10.25l10.74-35.44Z"/><path class="d" d="M1834.93,317.18c8.48,5.35,22.09,9.68,36.44,9.68,26.98,.45,43.38-18.04,43.38-42.39,0-19.26-9.91-31.92-27.16-48.9-20.32-19.81-32.52-41.16-32.52-65.6,0-46.37,33-80.52,82.39-80.52,18.77,0,31.92,4.38,38.13,8.54l-11.42,34.65c-7.97-4.16-16.74-7.17-29.21-7.17-23.54,0-39.15,16.48-39.32,39.28,0,15.8,7.6,28.07,27.45,46.11,20.42,18.61,32.46,42.13,32.46,65.83,0,52.41-33.73,86.18-84.46,86.18-23.88,0-40.85-5.98-46.88-10.25l10.74-35.44Z"/></g></g><g><path class="d" d="M62.8,440.48c0,5.06-3.83,10.07-10.4,10.07h-12.37v-33.06h9.02c5.7,0,9.56,4.1,9.56,8.49,0,3.57-2.48,5.95-3.71,5.95,3.71,0,7.9,3.4,7.9,8.55Zm-17.6-17.95v8.24l4.1-.02c2.56,.02,4.45-1.74,4.45-4.1s-2.05-4.12-4.39-4.12h-4.16Zm12.53,17.6c0-2.5-2.13-4.8-5.89-4.8l-6.64,.02v10.13h6.73c2.97,0,5.8-2.15,5.8-5.35Z"/><path class="d" d="M87.75,445.52h-15.65l-2.26,5.02h-5.62l15.54-33.73h.31l15.54,33.73h-5.62l-2.26-5.02Zm-2.01-4.45l-5.8-12.92-5.82,12.92h11.63Z"/><path class="d" d="M126.5,417.41v33.71h-.25l-21.14-22.09v21.55h-5.19v-33.67h.27l21.1,22.05v-21.55h5.21Z"/><path class="d" d="M164.89,435.08c0,9.82-7.14,16.02-15.73,16.02-9.62,0-17.25-7.67-17.25-17.04s7.67-17.12,17.06-17.12c4.16,.02,8.92,2.03,12.04,5.06l-2.89,4.31c-2.58-2.54-6.07-4.14-9.21-4.14-6.03,0-11.73,5.04-11.73,11.89,0,6.48,5.15,11.81,12.2,11.81,5.68,0,9.95-3.46,9.95-8.51v-.1h-10.23v-4.76h15.65c.08,.76,.14,1.66,.14,2.58Z"/><path class="d" d="M190.23,445.38v5.17h-19.93v-33.06h5.19v27.89h14.75Z"/><path class="d" d="M216.08,445.52h-15.65l-2.26,5.02h-5.62l15.54-33.73h.31l15.54,33.73h-5.62l-2.26-5.02Zm-2.01-4.45l-5.8-12.92-5.82,12.92h11.63Z"/><path class="d" d="M254.72,434.06c0,10.15-6.54,16.49-17.04,16.49h-9.41v-33.06h9.41c10.5-.02,17.04,6.34,17.04,16.57Zm-5.25-.02c0-7.01-4.55-11.4-11.81-11.4h-4.22v22.74h4.29c7.22,0,11.75-4.37,11.75-11.34Z"/><path class="d" d="M265.29,422.59v8.47h12.51v5.17h-12.51v9.15h14.5v5.17h-19.69v-33.06h19.69v5.11h-14.5Z"/><path class="d" d="M283.91,444.74l4.1-2.93c1.48,2.58,4.22,4.06,7.4,4.06,3.71,0,6.52-1.78,6.52-4.31,0-3.05-4.35-4.9-8.2-6.56-3.88-1.72-8.18-3.73-8.18-8.92s4.7-9.19,10.64-9.19c4.72,0,8.24,2.28,9.6,5.91l-3.86,2.67c-1.03-2.24-3.3-3.49-5.7-3.49-3.04,0-5.46,1.89-5.46,4.22,0,2.58,3.06,3.51,7.08,5.23,5.23,2.3,9.29,4.82,9.29,10.03,0,5.87-5.09,9.64-11.79,9.64-5.43,0-9.56-2.54-11.44-6.36Z"/><path class="d" d="M336.89,417.49v33.06h-5.19v-13.96h-14.31v13.96h-5.17v-33.06h5.17v13.95h14.31v-13.95h5.19Z"/><path class="d" d="M342.36,428.4c1.29,0,3.55-1.13,3.55-3.92,0-.7-.06-1.03-.33-1.46-1.25,0-2.91-1-2.91-2.95,0-1.85,1.46-3.45,3.45-3.45s3.57,1.62,3.57,4.9c0,4.18-2.34,7.75-5.54,7.75-1.13,0-1.78-.6-1.78-.88Z"/><path class="d" d="M353.1,444.74l4.1-2.93c1.48,2.58,4.22,4.06,7.4,4.06,3.71,0,6.52-1.78,6.52-4.31,0-3.05-4.35-4.9-8.2-6.56-3.88-1.72-8.18-3.73-8.18-8.92s4.7-9.19,10.64-9.19c4.72,0,8.24,2.28,9.6,5.91l-3.86,2.67c-1.03-2.24-3.3-3.49-5.7-3.49-3.04,0-5.46,1.89-5.46,4.22,0,2.58,3.06,3.51,7.08,5.23,5.23,2.3,9.29,4.82,9.29,10.03,0,5.87-5.09,9.64-11.79,9.64-5.43,0-9.56-2.54-11.44-6.36Z"/><path class="d" d="M399.54,422.57v8.84h12.51v5.17h-12.51v14.01h-5.19v-33.18h19.69v5.17h-14.5Z"/><path class="d" d="M418.79,417.49h5.19v33.06h-5.19v-33.06Z"/><path class="d" d="M449.14,450.55l-8.9-12.8h-4.06v12.8h-5.19l-.02-33.06h10.27c6.15,0,11.2,4.74,11.2,10.62,0,4.27-2.75,7.98-6.54,9.21l9.62,13.23h-6.38Zm-7.77-17.1c3.12,.02,5.72-2.5,5.72-5.46s-2.65-5.35-5.72-5.35h-5.21v10.81h5.21Z"/><path class="d" d="M457.73,444.74l4.1-2.93c1.48,2.58,4.22,4.06,7.4,4.06,3.71,0,6.52-1.78,6.52-4.31,0-3.05-4.35-4.9-8.2-6.56-3.88-1.72-8.18-3.73-8.18-8.92s4.7-9.19,10.64-9.19c4.72,0,8.24,2.28,9.6,5.91l-3.86,2.67c-1.03-2.24-3.3-3.49-5.7-3.49-3.04,0-5.46,1.89-5.46,4.22,0,2.58,3.06,3.51,7.08,5.23,5.23,2.3,9.29,4.82,9.29,10.03,0,5.87-5.09,9.64-11.79,9.64-5.43,0-9.56-2.54-11.44-6.36Z"/><path class="d" d="M506.75,422.64h-8.86v27.91h-5.21v-27.91h-8.86v-5.15h22.93v5.15Z"/><path class="d" d="M529.63,422.59v8.47h12.51v5.17h-12.51v9.15h14.5v5.17h-19.69v-33.06h19.69v5.11h-14.5Z"/><path class="d" d="M570.09,445.38v5.17h-19.93v-33.06h5.19v27.89h14.75Z"/><path class="d" d="M580.05,422.59v8.47h12.51v5.17h-12.51v9.15h14.5v5.17h-19.69v-33.06h19.69v5.11h-14.5Z"/><path class="d" d="M598.99,434.04c0-9.31,7.77-17.12,17.06-17.12,4.29,.06,8.24,1.89,11.48,5.04l-3.01,4.08c-2.32-2.32-5.33-3.86-8.57-3.86-5.99,0-11.71,5.25-11.71,11.87s5.8,11.81,11.73,11.81c3.38,0,6.3-1.68,8.57-3.94l2.99,4.18c-2.85,2.81-6.48,4.96-11.4,4.96-9.37,0-17.14-7.71-17.14-17.04Z"/><path class="d" d="M653,422.64h-8.86v27.91h-5.21v-27.91h-8.86v-5.15h22.93v5.15Z"/><path class="d" d="M675.92,450.55l-8.9-12.8h-4.06v12.8h-5.19l-.02-33.06h10.27c6.15,0,11.2,4.74,11.2,10.62,0,4.27-2.75,7.98-6.54,9.21l9.62,13.23h-6.38Zm-7.77-17.1c3.12,.02,5.72-2.5,5.72-5.46s-2.65-5.35-5.72-5.35h-5.21v10.81h5.21Z"/><path class="d" d="M686.42,417.49h5.19v33.06h-5.19v-33.06Z"/><path class="d" d="M697.02,434.04c0-9.31,7.77-17.12,17.06-17.12,4.29,.06,8.24,1.89,11.48,5.04l-3.01,4.08c-2.32-2.32-5.33-3.86-8.57-3.86-5.99,0-11.71,5.25-11.71,11.87s5.8,11.81,11.73,11.81c3.38,0,6.3-1.68,8.57-3.94l2.99,4.18c-2.85,2.81-6.48,4.96-11.4,4.96-9.37,0-17.14-7.71-17.14-17.04Z"/><path class="d" d="M751.13,445.52h-15.65l-2.26,5.02h-5.62l15.54-33.73h.31l15.54,33.73h-5.62l-2.26-5.02Zm-2.01-4.45l-5.8-12.92-5.82,12.92h11.63Z"/><path class="d" d="M783.24,445.38v5.17h-19.93v-33.06h5.19v27.89h14.75Z"/><path class="d" d="M828.49,450.83c-2.28-.02-5.29-1.35-8.45-3.46-2.44,2.48-5.68,3.81-9.37,3.81-7.49,0-11.3-5.44-11.3-10.32,0-4,2.65-7.81,5.58-9.54-1.25-2.32-2.01-4.49-2.01-6.34,0-4.1,3.79-8.33,8.74-8.33,4.47,0,8,3.47,8.61,7.42l-5.02,.94c-.25-2.01-1.89-3.57-3.75-3.57s-3.45,1.62-3.45,3.71c0,3.83,5.13,10.48,10.52,15.22,.8-1.79,1.27-3.96,1.37-6.38l4.88-.06c-.08,3.79-.86,7.03-2.15,9.62,2.26,1.52,4.31,2.44,5.82,2.44l-.02,4.82Zm-12.61-6.66c-3.14-2.67-6.15-5.85-8.47-9.02-1.97,1.39-3.12,3.24-3.12,5.39,0,3.14,2.11,5.56,6.11,5.56,2.15,0,4-.68,5.48-1.93Z"/><path class="d" d="M851.38,422.59v8.47h12.51v5.17h-12.51v9.15h14.5v5.17h-19.69v-33.06h19.69v5.11h-14.5Z"/><path class="d" d="M891.84,445.38v5.17h-19.93v-33.06h5.19v27.89h14.75Z"/><path class="d" d="M901.8,422.59v8.47h12.51v5.17h-12.51v9.15h14.5v5.17h-19.69v-33.06h19.69v5.11h-14.5Z"/><path class="d" d="M920.74,434.04c0-9.31,7.77-17.12,17.06-17.12,4.29,.06,8.24,1.89,11.48,5.04l-3.01,4.08c-2.32-2.32-5.33-3.86-8.57-3.86-5.99,0-11.71,5.25-11.71,11.87s5.8,11.81,11.73,11.81c3.38,0,6.3-1.68,8.57-3.94l2.99,4.18c-2.85,2.81-6.48,4.96-11.4,4.96-9.37,0-17.14-7.71-17.14-17.04Z"/><path class="d" d="M974.76,422.64h-8.86v27.91h-5.21v-27.91h-8.86v-5.15h22.93v5.15Z"/><path class="d" d="M997.68,450.55l-8.9-12.8h-4.06v12.8h-5.19l-.02-33.06h10.27c6.15,0,11.2,4.74,11.2,10.62,0,4.27-2.75,7.98-6.54,9.21l9.62,13.23h-6.38Zm-7.77-17.1c3.12,.02,5.72-2.5,5.72-5.46s-2.65-5.35-5.72-5.35h-5.21v10.81h5.21Z"/><path class="d" d="M1006.59,434.06c0-9.43,7.67-17.14,17.08-17.14s17.1,7.71,17.1,17.14-7.71,17.02-17.12,17.02-17.06-7.67-17.06-17.02Zm28.94-.04c0-6.54-5.35-11.87-11.87-11.87s-11.83,5.33-11.83,11.87,5.31,11.81,11.83,11.81,11.87-5.31,11.87-11.81Z"/><path class="d" d="M1072.75,417.41v33.71h-.25l-21.14-22.09v21.55h-5.19v-33.67h.27l21.1,22.05v-21.55h5.21Z"/><path class="d" d="M1079.73,417.49h5.19v33.06h-5.19v-33.06Z"/><path class="d" d="M1090.33,434.04c0-9.31,7.77-17.12,17.06-17.12,4.29,.06,8.24,1.89,11.48,5.04l-3.01,4.08c-2.32-2.32-5.33-3.86-8.57-3.86-5.99,0-11.71,5.25-11.71,11.87s5.8,11.81,11.73,11.81c3.38,0,6.3-1.68,8.57-3.94l2.99,4.18c-2.85,2.81-6.48,4.96-11.4,4.96-9.37,0-17.14-7.71-17.14-17.04Z"/><path class="d" d="M1141.75,422.59v8.47h12.51v5.17h-12.51v9.15h14.5v5.17h-19.69v-33.06h19.69v5.11h-14.5Z"/><path class="d" d="M1188.85,417.41v33.71h-.25l-21.14-22.09v21.55h-5.19v-33.67h.27l21.1,22.05v-21.55h5.21Z"/><path class="d" d="M1227.24,435.08c0,9.82-7.14,16.02-15.73,16.02-9.62,0-17.25-7.67-17.25-17.04s7.67-17.12,17.06-17.12c4.16,.02,8.92,2.03,12.04,5.06l-2.89,4.31c-2.58-2.54-6.07-4.14-9.21-4.14-6.03,0-11.73,5.04-11.73,11.89,0,6.48,5.15,11.81,12.2,11.81,5.68,0,9.95-3.46,9.95-8.51v-.1h-10.23v-4.76h15.65c.08,.76,.14,1.66,.14,2.58Z"/><path class="d" d="M1232.65,417.49h5.19v33.06h-5.19v-33.06Z"/><path class="d" d="M1271.4,417.41v33.71h-.25l-21.14-22.09v21.55h-5.19v-33.67h.27l21.1,22.05v-21.55h5.21Z"/><path class="d" d="M1283.58,422.59v8.47h12.51v5.17h-12.51v9.15h14.5v5.17h-19.69v-33.06h19.69v5.11h-14.5Z"/><path class="d" d="M1309.29,422.59v8.47h12.51v5.17h-12.51v9.15h14.5v5.17h-19.69v-33.06h19.69v5.11h-14.5Z"/><path class="d" d="M1347.98,450.55l-8.9-12.8h-4.06v12.8h-5.19l-.02-33.06h10.27c6.15,0,11.2,4.74,11.2,10.62,0,4.27-2.75,7.98-6.54,9.21l9.62,13.23h-6.38Zm-7.77-17.1c3.12,.02,5.72-2.5,5.72-5.46s-2.65-5.35-5.72-5.35h-5.21v10.81h5.21Z"/><path class="d" d="M1358.47,417.49h5.19v33.06h-5.19v-33.06Z"/><path class="d" d="M1397.23,417.41v33.71h-.25l-21.14-22.09v21.55h-5.19v-33.67h.27l21.1,22.05v-21.55h5.21Z"/><path class="d" d="M1435.61,435.08c0,9.82-7.14,16.02-15.73,16.02-9.62,0-17.25-7.67-17.25-17.04s7.67-17.12,17.06-17.12c4.16,.02,8.92,2.03,12.04,5.06l-2.89,4.31c-2.58-2.54-6.07-4.14-9.21-4.14-6.03,0-11.73,5.04-11.73,11.89,0,6.48,5.15,11.81,12.2,11.81,5.68,0,9.95-3.46,9.95-8.51v-.1h-10.23v-4.76h15.65c.08,.76,.14,1.66,.14,2.58Z"/><path class="d" d="M1486.34,416.77v33.78h-5.19v-18.33l-10.97,17.78h-.04l-10.99-17.8v18.35h-5.19v-33.78h.39l15.81,24.04,15.79-24.04h.39Z"/><path class="d" d="M1491.75,434.06c0-9.43,7.67-17.14,17.08-17.14s17.1,7.71,17.1,17.14-7.71,17.02-17.12,17.02-17.06-7.67-17.06-17.02Zm28.94-.04c0-6.54-5.35-11.87-11.87-11.87s-11.83,5.33-11.83,11.87,5.31,11.81,11.83,11.81,11.87-5.31,11.87-11.81Z"/><path class="d" d="M1557.9,417.41v33.71h-.25l-21.14-22.09v21.55h-5.19v-33.67h.27l21.1,22.05v-21.55h5.21Z"/><path class="d" d="M1585.6,422.64h-8.86v27.91h-5.21v-27.91h-8.86v-5.15h22.93v5.15Z"/><path class="d" d="M1615.02,417.49v33.06h-5.19v-13.96h-14.31v13.96h-5.17v-33.06h5.17v13.95h14.31v-13.95h5.19Z"/><path class="d" d="M1641.94,445.38v5.17h-19.93v-33.06h5.19v27.89h14.75Z"/><path class="d" d="M1648.83,436.42l-10.97-18.93h5.84l7.69,13.17,7.71-13.17h5.84l-10.97,18.93v14.13h-5.15v-14.13Z"/><path class="d" d="M1708.76,417.41v33.71h-.25l-21.14-22.09v21.55h-5.19v-33.67h.27l21.1,22.05v-21.55h5.21Z"/><path class="d" d="M1720.94,422.59v8.47h12.51v5.17h-12.51v9.15h14.5v5.17h-19.69v-33.06h19.69v5.11h-14.5Z"/><path class="d" d="M1738.75,417.49h5.6l6.13,20.41,7.57-19.01h.21l7.57,18.99,6.11-20.38h5.6l-10.5,33.37h-.47l-8.47-19.93-8.35,19.93h-.47l-10.52-33.37Z"/><path class="d" d="M1778.29,444.74l4.1-2.93c1.48,2.58,4.22,4.06,7.4,4.06,3.71,0,6.52-1.78,6.52-4.31,0-3.05-4.35-4.9-8.2-6.56-3.88-1.72-8.18-3.73-8.18-8.92s4.7-9.19,10.64-9.19c4.72,0,8.24,2.28,9.6,5.91l-3.86,2.67c-1.03-2.24-3.3-3.49-5.7-3.49-3.04,0-5.46,1.89-5.46,4.22,0,2.58,3.06,3.51,7.08,5.23,5.23,2.3,9.29,4.82,9.29,10.03,0,5.87-5.09,9.64-11.79,9.64-5.43,0-9.56-2.54-11.44-6.36Z"/><path class="d" d="M1826.53,445.38v5.17h-19.93v-33.06h5.19v27.89h14.75Z"/><path class="d" d="M1836.5,422.59v8.47h12.51v5.17h-12.51v9.15h14.5v5.17h-19.69v-33.06h19.69v5.11h-14.5Z"/><path class="d" d="M1877.73,422.64h-8.86v27.91h-5.21v-27.91h-8.86v-5.15h22.93v5.15Z"/><path class="d" d="M1903.2,422.64h-8.86v27.91h-5.21v-27.91h-8.86v-5.15h22.93v5.15Z"/><path class="d" d="M1913.14,422.59v8.47h12.51v5.17h-12.51v9.15h14.5v5.17h-19.69v-33.06h19.69v5.11h-14.5Z"/><path class="d" d="M1951.83,450.55l-8.9-12.8h-4.06v12.8h-5.19l-.02-33.06h10.27c6.15,0,11.2,4.74,11.2,10.62,0,4.27-2.75,7.98-6.54,9.21l9.62,13.23h-6.38Zm-7.77-17.1c3.12,.02,5.72-2.5,5.72-5.46s-2.65-5.35-5.72-5.35h-5.21v10.81h5.21Z"/></g></g></g></svg>