<?xml version="1.0" encoding="UTF-8"?><svg xmlns="http://www.w3.org/2000/svg" viewBox="0 0 2000 500"><defs><style>.d{fill:#e35626;}.e{font-family:LEMONMILK-Regular, LEMON MILK;font-size:42px;}.e,.f{fill:#010101;}</style></defs><g id="a"/><g id="b"/><g id="c"><g><g><polygon class="d" points="831.54 150.38 842.09 95.7 763.82 95.7 767.58 38.2 745.93 95.7 694.06 95.7 683.51 150.38 725.35 150.38 679.61 271.87 715.58 271.87 689.15 358.95 720.14 358.95 713.14 415.3 808.73 194.35 776.27 194.35 786.62 150.38 831.54 150.38"/><g><path class="f" d="M161.93,245.7h-56.2l-12.75,62.57h64.57l-10.36,52.21H24.42L75.84,91.85h118.37l-10.36,51.81h-58.19l-11.16,52.61h56.99l-9.57,49.42Z"/><path class="f" d="M237.25,91.85h58.99l-41.85,217.62h62.18l-9.96,51.02h-120.77L237.25,91.85Z"/><path class="f" d="M468.02,245.7h-56.2l-12.75,62.57h64.57l-10.36,52.21h-122.76l51.42-268.63h118.37l-10.36,51.81h-58.19l-11.16,52.61h56.99l-9.57,49.42Z"/><path class="f" d="M620.67,358.09c-8.77,3.19-20.73,4.78-37.47,4.78-73.34,0-81.71-65.36-81.71-90.87,0-70.55,22.32-118.77,51.42-148.27,23.52-23.91,53.81-34.28,83.3-34.28,13.95,0,29.1,3.59,32.28,5.98l-16.34,51.42c-5.18-2.39-11.96-3.99-23.91-3.99s-26.3,8.37-36.27,21.52c-15.54,20.73-27.5,53.01-27.5,95.26,0,30.29,8.77,50.22,32.28,50.22,9.17,0,20.33-1.59,27.1-3.99l-3.19,52.21Z"/><path class="f" d="M859.4,95.84c18.33-3.19,39.06-5.18,58.19-5.18,23.91,0,48.63,3.99,64.17,19.13,11.56,11.16,18.73,27.1,18.73,45.44,0,39.86-24.31,70.55-53.81,80.51v1.2c13.55,6.78,19.53,20.73,20.33,48.62,.8,26.7,1.59,64.57,4.38,74.93h-58.99c-1.2-7.17-1.99-35.07-1.59-63.37,.4-30.29-5.58-39.86-19.13-39.86h-6.38l-19.13,103.23h-57.39l50.62-264.65Zm35.47,116.38h9.96c22.32,0,35.47-25.91,35.47-49.82,0-11.16-4.38-26.31-19.93-26.31-4.78,0-9.17,.4-11.96,1.2l-13.55,74.93Z"/><path class="f" d="M1197.38,173.56c0,59.78-18.33,127.54-54.21,163.41-17.54,17.54-37.86,26.7-63.37,26.7-61.38,0-70.55-59.39-70.55-88.88,0-56.2,18.33-123.95,55.8-160.22,16.34-15.94,36.67-25.91,62.57-25.91,61.38,0,69.75,53.81,69.75,84.9Zm-92.07-26.31c-22.72,22.72-35.47,95.26-35.47,135.11,0,11.56,1.99,29.89,18.73,29.89,4.38,0,9.17-2.39,13.15-6.38,24.31-24.31,35.07-110,35.07-138.7,0-10.36-2.39-27.1-16.74-27.1-5.18,0-9.96,2.39-14.75,7.17Z"/><path class="f" d="M1250.15,95.15c14.84-2.84,33.5-4.49,48.68-4.49,17.3,0,42.16,4.22,56.72,20.31,10.93,12.07,15.59,29.87,15.59,45.03,0,33.78-15.29,60.99-31.34,76.37-17.58,17.03-43.54,25.24-65.74,25.24-5.42,0-10.55-.34-15-1.03l-19.82,103.91h-39.36l50.27-265.34Zm15.39,127.79c3.94,.69,7.53,1.03,12.1,1.03,38.57,0,52.72-38.17,52.72-64.68,0-20.87-8.95-35.24-32.73-35.24-4.9,0-9.92,.34-13.51,1.31l-18.58,97.58Z"/><path class="f" d="M1418.74,95.15c15.41-2.84,32.36-4.49,48.4-4.49,22.2,0,42.27,5.19,54.72,17.76,10.53,10.82,16.33,25.73,16.33,43.03,0,38.48-23.8,71.23-55.18,81.54v1.02c15.27,6.6,22.45,23.47,23.07,55.84,.63,32.89,1.94,61.48,4.21,70.64h-40.44c-1.71-7.69-2.17-34.04-2.45-65.26-.46-34.76-8.16-47.24-28.41-47.24h-10.15l-21.02,112.5h-39.36l50.27-265.34Zm16.58,121.36h12.54c28.33,0,48.7-28.14,48.7-60.98,0-17-7.48-32.83-29.37-32.83-5.47,0-10.89,.4-14.71,1.54l-17.16,92.28Z"/><path class="f" d="M1666.81,237.45h-62.38l-16.88,87.13h71.44l-7.1,35.9h-111.25l51.07-268.63h106.7l-7.1,35.67h-65.58l-15.11,75.62h62.83l-6.65,34.31Z"/><path class="f" d="M1691.45,317.18c8.48,5.35,22.09,9.68,36.44,9.68,26.98,.45,43.38-18.04,43.38-42.39,0-19.26-9.91-31.92-27.16-48.9-20.32-19.81-32.52-41.16-32.52-65.6,0-46.37,33-80.52,82.39-80.52,18.77,0,31.92,4.38,38.13,8.54l-11.42,34.65c-7.97-4.16-16.74-7.17-29.21-7.17-23.54,0-39.15,16.48-39.32,39.28,0,15.8,7.6,28.07,27.45,46.11,20.42,18.61,32.46,42.13,32.46,65.83,0,52.41-33.73,86.18-84.46,86.18-23.88,0-40.85-5.98-46.88-10.25l10.74-35.44Z"/><path class="f" d="M1834.93,317.18c8.48,5.35,22.09,9.68,36.44,9.68,26.98,.45,43.38-18.04,43.38-42.39,0-19.26-9.91-31.92-27.16-48.9-20.32-19.81-32.52-41.16-32.52-65.6,0-46.37,33-80.52,82.39-80.52,18.77,0,31.92,4.38,38.13,8.54l-11.42,34.65c-7.97-4.16-16.74-7.17-29.21-7.17-23.54,0-39.15,16.48-39.32,39.28,0,15.8,7.6,28.07,27.45,46.11,20.42,18.61,32.46,42.13,32.46,65.83,0,52.41-33.73,86.18-84.46,86.18-23.88,0-40.85-5.98-46.88-10.25l10.74-35.44Z"/></g></g><text class="e" transform="translate(36.85 450.55)"><tspan x="0" y="0">Bangladesh’s First Electrical &amp; Electronic Engineering MONTHLY Newsletter</tspan></text></g></g></svg>